<svg width="121" height="32" viewBox="0 0 121 32" fill="none" xmlns="http://www.w3.org/2000/svg">
    <path d="M15.9381 20.1797C18.2402 20.1797 20.1064 18.3053 20.1064 15.9932C20.1064 13.681 18.2402 11.8066 15.9381 11.8066C13.6361 11.8066 11.7699 13.681 11.7699 15.9932C11.7699 18.3053 13.6361 20.1797 15.9381 20.1797Z" fill="#E5E5E5"></path>
    <path d="M15.8854 4.14583e-05C7.23339 0.026455 0.132932 7.07886 0.00144229 15.7689C-0.116899 24.7099 7.06245 32 15.9249 32V29.2266C15.9249 28.0644 15.1096 27.0607 13.9657 26.8494C8.65348 25.8853 4.65618 21.0648 4.95861 15.3991C5.26104 9.68059 9.96838 5.09785 15.675 4.97899C19.8433 4.88654 23.4987 7.14489 25.4316 10.5126L29.6261 7.84485C26.8517 3.13004 21.7367 -0.0131653 15.8854 4.14583e-05Z" fill="#E5E5E5"></path>
    <path d="M15.7278 5.91675C10.3893 6.0224 6.0238 10.3806 5.89231 15.7558C5.76082 21.4347 10.2972 26.0835 15.925 26.0835V23.0987C15.925 22.0686 15.2544 21.1838 14.2814 20.8536C12.1512 20.1272 10.6522 18.0405 10.8232 15.6237C11.0073 13.1144 13.0059 11.0938 15.5042 10.8957C17.6607 10.724 19.5541 11.8994 20.4614 13.6823L24.6428 11.0146C22.894 7.91097 19.5541 5.8375 15.7278 5.91675Z" fill="#E5E5E5"></path>
    <path d="M47.4175 22.5921C46.6759 22.9878 45.8416 23.1973 44.9609 23.1973C42.2262 23.1973 40.2099 20.9394 40.2099 18.216C40.2099 15.5391 42.2262 13.2812 45.1231 13.2812C45.8184 13.2812 46.4905 13.4208 47.1394 13.7002C47.8347 14.0028 48.6458 13.8398 49.1325 13.2579L49.6423 12.6527C48.414 11.6052 46.7686 11 44.9609 11C40.7198 11.0466 37.5911 14.2588 37.5911 18.2393C37.5911 22.2662 40.7198 25.4785 44.9377 25.4785C46.9308 25.4785 48.6921 24.7336 49.99 23.5465L49.4801 22.9646C48.9471 22.3826 48.0896 22.2197 47.4175 22.5921Z" fill="#E5E5E5"></path>
    <path d="M64.4053 12.0007L62.2731 15.0966C61.6937 15.9113 61.1839 16.6795 61.1839 16.6795C61.1839 16.6795 60.7435 15.9579 60.141 15.0966L57.9161 11.9775C57.5917 11.5352 57.0818 11.2559 56.5488 11.2559H54.5557L59.9556 18.7977V25.2688H62.4585V18.7977L67.8121 11.2791H65.8422C65.2396 11.2559 64.7297 11.5352 64.4053 12.0007Z" fill="#E5E5E5"></path>
    <path d="M85.5182 16.6096C85.5182 13.6534 83.3861 11.2559 79.3767 11.2559H73.4901V25.2688H75.9931V21.9634H79.1449C79.5853 21.9634 80.0024 21.9169 80.3964 21.847L82.32 24.5472C82.6444 24.9895 83.1543 25.2688 83.7105 25.2688H85.75L82.6676 21.172C84.5217 20.2642 85.5182 18.4951 85.5182 16.6096ZM79.4926 19.7986H75.9931V13.3974H79.5157C81.4857 13.3974 82.8994 14.8173 82.8994 16.6096C82.8994 18.3787 81.5088 19.7986 79.4926 19.7986Z" fill="#E5E5E5"></path>
    <path d="M115.808 16.8892C114.14 16.4702 112.888 16.121 112.888 14.9804C112.888 13.7002 114.487 13.3277 115.415 13.3277C116.342 13.3277 117.199 13.4674 118.01 13.7933C118.821 14.0959 119.748 13.77 120.142 12.9786L120.351 12.5829C118.96 11.6285 117.408 11.0698 115.391 11.0698C112.819 11.0698 110.339 12.4199 110.339 15.027C110.339 17.8203 112.981 18.635 115.554 19.2402C116.967 19.5893 118.404 19.985 118.404 21.242C118.404 22.5223 116.898 23.2206 115.391 23.2206C114.094 23.2206 113.051 22.9413 112.193 22.5223C111.359 22.1033 110.339 22.4292 109.922 23.2671L109.806 23.4999C110.733 24.3612 112.355 25.5018 115.368 25.5018C118.126 25.5018 121 24.175 121 21.242C121.023 18.4953 118.474 17.5176 115.808 16.8892Z" fill="#E5E5E5"></path>
    <path d="M101.069 12.9551V19.5426C101.069 21.847 99.7942 23.1739 97.6389 23.1739H97.6157C95.4604 23.1739 94.1857 21.847 94.1857 19.5426V12.9551C94.1857 12.024 93.4209 11.2559 92.4939 11.2559H91.7059V19.6823C91.7059 23.2902 94.0235 25.4783 97.6389 25.4783C101.231 25.4783 103.572 23.2902 103.572 19.6823V11.2559H102.784C101.81 11.2559 101.069 12.024 101.069 12.9551Z" fill="#E5E5E5"></path>
</svg>
